<svg width="513" height="467" viewBox="0 0 513 467" fill="none" xmlns="http://www.w3.org/2000/svg">
<path d="M108.229 411.942C141.592 447.125 187.999 466.975 236.485 466.803C332.323 466.803 422.017 395.831 445.552 375.658C446.597 374.96 447.577 374.169 448.479 373.294C448.547 373.235 448.641 373.218 448.718 373.149C470.469 354.12 507.598 310.003 511.702 228.159C515.346 156.317 485.992 118.549 457.311 107.157C441.174 100.765 425.26 103.086 416.726 113.13C412.656 117.9 404.694 131.519 418.536 154.722C437.308 184.721 431.89 223.86 405.676 247.633C386.604 222.602 365.858 198.893 343.579 176.669C268.571 101.738 177.128 41.4672 147.466 71.0949C146.697 71.9348 145.995 72.8335 145.366 73.7829C145.154 73.977 144.952 74.1821 144.761 74.3973C142.405 77.128 139.282 80.8912 135.698 85.3883C121.746 69.6155 102.993 58.8689 82.3307 54.8048C61.8008 52.145 41.2556 59.6042 27.2139 74.8155C4.52934 96.3108 -4.91235 128.305 2.46727 158.673C7.60117 178.856 18.2358 197.218 33.1873 211.716C41.1447 219.654 50.0528 226.579 59.7089 232.332C45.8934 290.444 51.6961 355.417 108.229 411.942V411.942ZM63.5147 123.703C65.1872 120.117 68.2269 117.351 71.9542 116.023C75.1988 115.101 78.679 115.545 81.5883 117.252C89.2244 121.924 95.7852 128.159 100.84 135.547C93.3536 147.954 86.5316 160.749 80.4022 173.879C66.8257 162.419 53.1297 143.321 63.5147 123.703V123.703ZM120.296 399.876C17.7078 297.297 99.4059 161.71 141.407 105.843C142.839 112.16 144.808 118.344 147.295 124.326C163.116 163.34 202.634 216.716 253.014 267.097L258.698 272.703C309.573 322.538 372.677 369.565 414.38 378.713C358.538 420.723 222.875 502.472 120.296 399.876V399.876ZM168.415 129.582C193.912 130.172 217.75 142.347 233.174 162.658C244.746 178.146 244.72 197.533 244.694 216.29C244.694 222.263 244.694 228.313 245.113 234.261C214.913 203.012 189.11 167.796 168.415 129.582V129.582ZM433.204 145.949C427.521 136.418 426.216 128.268 429.723 124.155C436.001 119.644 444.329 119.194 451.056 123.003C473.183 131.801 497.896 164.381 494.704 227.289C490.89 302.818 457.251 343.052 437.531 360.307C437.377 360.443 437.309 360.639 437.164 360.793C437.019 360.947 436.703 361.041 436.515 361.22C436.076 361.45 435.653 361.712 435.252 362.005C426.548 366.545 404.669 360.614 374.316 342.83C400.665 336.705 424.332 322.238 441.797 301.58C443.857 299.243 444.479 295.97 443.421 293.04C442.363 290.11 439.792 287.99 436.715 287.508C433.637 287.026 430.542 288.26 428.639 290.726C409.351 312.825 382.314 326.674 353.11 329.416C335.565 317.319 318.737 304.213 302.713 290.163C307.09 290.734 311.656 291.212 316.622 291.477C349.486 294.537 382.366 285.794 409.371 266.815L409.465 266.747C447.963 239.021 458.347 186.182 433.204 145.949V145.949ZM331.521 188.676C353.254 210.358 373.496 233.485 392.108 257.898C369.517 270.89 343.488 276.646 317.526 274.393C294.58 273.164 279.502 268.488 271.395 260.074C261.71 250.082 261.727 234.431 261.753 216.307C261.753 195.767 261.804 172.488 246.845 152.443C226.362 126.054 194.424 111.145 161.042 112.388C154.651 94.408 156.997 86.9328 158.482 84.4923L158.713 84.0997C158.946 83.7435 159.217 83.4143 159.523 83.1184C173.339 69.2944 245.48 102.728 331.521 188.676ZM45.2022 199.65C32.5073 187.384 23.4575 171.842 19.0561 154.747C13.1615 130.127 20.8895 104.235 39.3142 86.8731C49.6331 75.4983 64.8337 69.8438 80.0779 71.7093C97.7349 75.5647 113.614 85.1685 125.228 99.016C120.603 105.297 115.594 112.456 110.44 120.349C104.748 113.059 97.7045 106.935 89.695 102.31C82.7608 98.4394 74.5578 97.5317 66.9451 99.7925C58.8641 102.426 52.1836 108.202 48.4107 115.818C33.7505 143.466 50.3222 172.65 73.3622 190.143C70.0769 198.276 67.0646 206.638 64.4278 215.214C57.4976 210.706 51.0544 205.49 45.2022 199.65V199.65Z" fill="white"/>
<path d="M144.581 291.647C114.715 321.429 109.271 364.616 132.498 387.955C135.304 390.684 138.441 393.052 141.834 395.003C141.97 395.063 142.098 395.148 142.243 395.208C150.613 399.975 160.097 402.439 169.729 402.35C192.113 401.596 213.309 392.099 228.771 375.897C258.638 346.116 264.082 302.92 240.846 279.59C217.61 256.26 174.371 261.789 144.581 291.647V291.647ZM156.631 303.739C168.869 290.698 185.7 282.928 203.564 282.073C207.489 282.09 211.39 282.682 215.144 283.831C212.54 289.06 210.907 294.718 210.322 300.531C209.685 313.971 198.923 324.718 185.482 325.337C164.545 327.048 147.919 343.655 146.186 364.59C145.837 368.077 144.975 371.494 143.626 374.728C128.308 357.789 133.949 326.37 156.631 303.739V303.739ZM216.722 363.805C198.871 381.725 175.575 388.962 158.218 383.799C160.853 378.549 162.499 372.859 163.073 367.014C163.714 353.586 174.46 342.848 187.888 342.216C208.825 340.502 225.452 323.897 227.193 302.963C227.542 299.479 228.405 296.065 229.753 292.834C245.044 309.73 239.429 341.149 216.722 363.805V363.805Z" fill="white"/>
<path d="M374.154 86.2842C377.431 87.1207 380.798 87.5534 384.18 87.5728C391.489 87.8207 398.59 85.1174 403.884 80.072C411.076 71.9761 413.44 60.6758 410.096 50.376C406.829 38.7335 400.52 28.1713 391.818 19.7754C383.422 11.075 372.859 4.76868 361.217 1.50558C350.909 -1.85869 339.59 0.503303 331.487 7.70931C324.277 15.8128 321.911 27.1356 325.275 37.448C328.535 49.0936 334.845 59.6576 343.553 68.0485C351.95 76.7401 362.513 83.035 374.154 86.2842V86.2842ZM343.553 19.7242C345.64 17.9228 348.354 17.0181 351.105 17.2069C353.121 17.2313 355.127 17.5006 357.078 18.009C365.705 20.5505 373.517 25.3011 379.743 31.7904C386.239 38.0203 390.996 45.8388 393.541 54.472C395.291 58.9824 394.65 64.071 391.835 68.0058C387.898 70.8146 382.812 71.4559 378.301 69.7125C369.674 67.1683 361.861 62.4148 355.636 55.9226C349.141 49.718 344.381 41.9223 341.829 33.3093C340.071 28.7836 340.719 23.6754 343.553 19.7328V19.7242Z" fill="white"/>
</svg>
